<svg xmlns="http://www.w3.org/2000/svg" viewBox="0 0 268.83 260.7"><defs><style>.cls-1{fill:#1d1d1b;}</style></defs><g id="Layer_2" data-name="Layer 2"><g id="Layer_1-2" data-name="Layer 1"><path class="cls-1" d="M17.43,97.8l13-35.86.25,10.54L1.25,0H18.93L38.75,51.29h-4L54.42,0h17L33.23,97.8Z"/><path class="cls-1" d="M102.32,69.72q-8,0-13-2.7a21.44,21.44,0,0,1-7.81-6.83,28.57,28.57,0,0,1-4-8.62,44.29,44.29,0,0,1-1.44-8.18c-.17-2.47-.25-4.27-.25-5.4V0h17.3V32c0,1.54.09,3.52.26,5.92A26.26,26.26,0,0,0,95,45.14a13.77,13.77,0,0,0,4.3,6.08q3,2.45,8.43,2.45a17.76,17.76,0,0,0,4.7-.69,11.59,11.59,0,0,0,4.7-2.67,14.18,14.18,0,0,0,3.61-5.83,30.05,30.05,0,0,0,1.41-10.12L131.91,39a35.31,35.31,0,0,1-3.26,15,26.93,26.93,0,0,1-9.81,11.35Q112.29,69.72,102.32,69.72Zm21.94-2V45.27h-2.13V0h17.18V67.71Z"/><path class="cls-1" d="M145,83.63V70.47h82.76V83.63Z"/><path class="cls-1" d="M0,191.61V178.45H82.76v13.16Z"/><path class="cls-1" d="M114.86,177.57q-12.8,0-20.66-5.8t-9.56-16.4l17.43-2.63a12.19,12.19,0,0,0,4.73,7.46,15.28,15.28,0,0,0,9.31,2.7q4.64,0,7.15-1.79a5.77,5.77,0,0,0,2.5-5,4.91,4.91,0,0,0-1-3.23c-.67-.82-2.16-1.62-4.48-2.42s-5.93-1.83-10.82-3.13a61.07,61.07,0,0,1-13.22-4.77,17.55,17.55,0,0,1-7.15-6.3,16.89,16.89,0,0,1-2.2-8.87,19.32,19.32,0,0,1,3.33-11.31,21.18,21.18,0,0,1,9.37-7.4,35.81,35.81,0,0,1,14.26-2.6A38,38,0,0,1,128,108.54a24.59,24.59,0,0,1,9.94,7,20.88,20.88,0,0,1,4.67,10.66l-17.43,3.13a8.47,8.47,0,0,0-3.26-5.95,13.92,13.92,0,0,0-7.65-2.57,13.7,13.7,0,0,0-7.56,1.25,4.92,4.92,0,0,0-2.85,4.51,4,4,0,0,0,1.22,2.95,14.3,14.3,0,0,0,5.08,2.45q3.85,1.24,11.76,3.26a51,51,0,0,1,12.38,4.67,17.51,17.51,0,0,1,6.8,6.39,17.89,17.89,0,0,1,2.13,9q0,10.41-7.52,16.36T114.86,177.57Z"/><path class="cls-1" d="M179.06,177.69q-8,0-13-2.69a21.38,21.38,0,0,1-7.81-6.84,28.57,28.57,0,0,1-4-8.62,44,44,0,0,1-1.44-8.18c-.17-2.46-.25-4.26-.25-5.39V108h17.3v32c0,1.55.09,3.52.25,5.93a26.73,26.73,0,0,0,1.57,7.24A13.88,13.88,0,0,0,176,159.2q3,2.45,8.44,2.44a17.76,17.76,0,0,0,4.7-.69,11.68,11.68,0,0,0,4.7-2.66,14.35,14.35,0,0,0,3.61-5.83,30.11,30.11,0,0,0,1.41-10.13l9.78,4.64A35.36,35.36,0,0,1,205.39,162a27.13,27.13,0,0,1-9.81,11.35Q189,177.69,179.06,177.69Zm21.94-2V153.24h-2.13V108h17.18v67.71Z"/><path class="cls-1" d="M225.45,121.14V108h43.38v13.16Zm10.66,54.55V108.23c0-1.72,0-3.66.12-5.83a28.77,28.77,0,0,1,1-6.59,14.59,14.59,0,0,1,3.35-6,16.56,16.56,0,0,1,6.8-4.79,23.29,23.29,0,0,1,7.12-1.38c2.3-.06,4.26-.09,5.89-.09h8.4V97.32h-7.77q-4,0-6,2a6.78,6.78,0,0,0-1.94,4.85v71.48Z"/><path class="cls-1" d="M15.89,260.63A15,15,0,0,1,8.54,259,11.35,11.35,0,0,1,4,254.52a12.49,12.49,0,0,1-1.55-6.15,14.67,14.67,0,0,1,.86-5.12,10.5,10.5,0,0,1,2.78-4.1,15.55,15.55,0,0,1,5.18-3,38.42,38.42,0,0,1,5.35-1.46c2.06-.42,4.41-.83,7-1.21l8.64-1.29-3.67,2c0-2.4-.57-4.15-1.71-5.28s-3.07-1.68-5.76-1.68a11.48,11.48,0,0,0-4.67,1.09A6.25,6.25,0,0,0,13,232.22L3.85,229.3a15.6,15.6,0,0,1,5.76-8.15Q13.83,218,21.12,218a25.51,25.51,0,0,1,9.49,1.65,11.85,11.85,0,0,1,6.28,5.68,12,12,0,0,1,1.42,4.49c.15,1.49.23,3.16.23,5v24.68h-8.9v-8.3l1.27,1.72a19.25,19.25,0,0,1-6.37,5.88A18.36,18.36,0,0,1,15.89,260.63Zm2.16-8a10.25,10.25,0,0,0,4.73-1,10.43,10.43,0,0,0,3.07-2.27,9.69,9.69,0,0,0,1.55-2.13,10.32,10.32,0,0,0,.92-3.83c.08-1.46.13-2.67.13-3.64l3,.75q-4.53.73-7.33,1.25c-1.87.34-3.38.64-4.52.91a28.12,28.12,0,0,0-3,.9,10.48,10.48,0,0,0-2.41,1.29,4.65,4.65,0,0,0-1.35,1.52,3.92,3.92,0,0,0-.43,1.83,4,4,0,0,0,.69,2.37,4.33,4.33,0,0,0,2,1.51A7.84,7.84,0,0,0,18.05,252.63Z"/><path class="cls-1" d="M46.31,259.51l.08-53.83H56.7v32.89l13.69-19.44H83L68.37,239.32l15.55,20.19H70.69l-14-19.44v19.44Z"/><path class="cls-1" d="M85.71,259.51V205.68H96v26.16H94.68v27.67Zm19.89,1.12A16.4,16.4,0,0,1,89.47,250.2a30.17,30.17,0,0,1,0-21.76,17.45,17.45,0,0,1,5.94-7.62,16.25,16.25,0,0,1,9.69-2.81,18.2,18.2,0,0,1,10.09,2.77,18.59,18.59,0,0,1,6.67,7.57,24.47,24.47,0,0,1,2.37,11,24.75,24.75,0,0,1-2.33,10.88,18.92,18.92,0,0,1-6.53,7.62A17.1,17.1,0,0,1,105.6,260.63Zm-1.65-9a8.51,8.51,0,0,0,5.39-1.64,9.74,9.74,0,0,0,3.1-4.43,18.14,18.14,0,0,0,1-6.19,17.33,17.33,0,0,0-1-6.15,9.74,9.74,0,0,0-3.23-4.45,9,9,0,0,0-5.59-1.66,8.12,8.12,0,0,0-5.14,1.53,8.69,8.69,0,0,0-2.86,4.3,23.42,23.42,0,0,0,0,12.86,8.54,8.54,0,0,0,2.93,4.3A8.84,8.84,0,0,0,104,251.58Z"/><path class="cls-1" d="M145.6,260.7a16.17,16.17,0,0,1-7.74-1.61A12.75,12.75,0,0,1,133.2,255a16.8,16.8,0,0,1-2.37-5.14A26.33,26.33,0,0,1,130,245q-.15-2.2-.15-3.21V219.13h10.32V238.2c0,.92.05,2.1.15,3.53a16.09,16.09,0,0,0,.93,4.32,8.24,8.24,0,0,0,2.56,3.62,7.69,7.69,0,0,0,5,1.46,10.31,10.31,0,0,0,2.8-.41,6.88,6.88,0,0,0,2.81-1.59,8.5,8.5,0,0,0,2.15-3.47,18,18,0,0,0,.84-6l5.83,2.76a21,21,0,0,1-2,9,16,16,0,0,1-5.85,6.76A17.48,17.48,0,0,1,145.6,260.7Zm13.08-1.19V246.12h-1.27v-27h10.24v40.38Z"/><path class="cls-1" d="M177,259.51V204.56h10.17v54.95Z"/><path class="cls-1" d="M211.53,260.7a16.23,16.23,0,0,1-7.74-1.61,12.8,12.8,0,0,1-4.65-4.07,16.8,16.8,0,0,1-2.37-5.14,25.52,25.52,0,0,1-.86-4.88q-.15-2.2-.15-3.21V219.13h10.31V238.2c0,.92.05,2.1.15,3.53a16.11,16.11,0,0,0,.94,4.32,8.16,8.16,0,0,0,2.56,3.62,7.67,7.67,0,0,0,5,1.46,10.37,10.37,0,0,0,2.8-.41,6.78,6.78,0,0,0,2.8-1.59,8.39,8.39,0,0,0,2.15-3.47,18,18,0,0,0,.84-6l5.83,2.76a21,21,0,0,1-1.94,9,16.07,16.07,0,0,1-5.85,6.76A17.51,17.51,0,0,1,211.53,260.7Zm13.08-1.19V246.12h-1.27v-27h10.25v40.38Z"/><path class="cls-1" d="M237.7,227v-7.85h28.7V227Zm28.7,32.53a39.79,39.79,0,0,1-8.2.69,19.86,19.86,0,0,1-7.18-1.42,9.65,9.65,0,0,1-4.8-4.28,12.4,12.4,0,0,1-1.57-5.63q-.08-2.87-.08-6.49V207.92h10.17v33.87c0,1.57,0,3,.06,4.24a5.88,5.88,0,0,0,.76,3,5.14,5.14,0,0,0,4.3,2.32,34,34,0,0,0,6.54-.3Z"/></g></g></svg>