<svg xmlns="http://www.w3.org/2000/svg" viewBox="0 0 3928.4 599.44"><defs><style>.cls-1{fill:#fff;}</style></defs><g id="Layer_2" data-name="Layer 2"><g id="Layer_1-2" data-name="Layer 1"><path class="cls-1" d="M589,302.92c0,163.76-131.85,296.52-294.5,296.52S0,466.72,0,302.92,131.85,6.41,294.49,6.41,589,139.16,589,302.92m323.07,0C912.06,457.08,846.13,582,764.81,582S617.56,457,617.56,302.92,683.49,23.8,764.81,23.8s147.25,125,147.25,279.12m132.14,0C1044.2,441,1021,553,992.41,553s-51.79-112-51.79-250.08,23.19-250.08,51.8-250.08,51.78,112,51.78,250.08M1857,32.12l.82-.18V25.59H1690.31L1534.8,391.09,1379.29,25.59H1198.81v6.35l.81.18c30.57,6.9,46.09,17.19,46.09,54.3V520.87c0,37.11-15.58,47.4-46.15,54.3l-.81.18v6.37H1321.2v-6.35l-.81-.18c-30.57-6.9-46.09-17.19-46.09-54.3V111.62l199.77,470.1h11.33L1691,98.51V531.62c-2.62,29.31-18,38.36-45.68,44.61l-.82.19v6.3h213.3v-6.3l-.82-.19c-27.71-6.25-43.46-15.3-46.08-44.61l-.14-445.2h.14c0-37.11,15.52-47.4,46.08-54.3m97.43,287.8c3.49-78.06,31.52-134.4,78.56-135.37,14.51.24,26.68,5,36.14,14.16,20.1,19.51,29.55,60.28,28.09,121.21Zm-2.11,22h250v-1.05c-.71-59.69-18-106.12-51.34-138-28.82-27.55-71.49-42.71-116.31-42.71h-1c-23.26,0-51.79,5.64-72.09,15.86-23.11,10.7-43.49,26.7-60.45,47.7-27.3,33.83-43.84,79.55-47.86,130.93-.13,1.54-.24,3.08-.35,4.62s-.18,2.92-.25,4.39q-.54,10.83-.36,21.69c2.71,116.37,65.57,209.37,177.22,209.37,98,0,155.07-71.64,169.3-167.8l-7.19-2.53c-25,51.68-69.9,83-121,79.18-69.76-5.22-123.2-75.95-118.35-161.63M2485,499.62c-8.2,19.45-25.31,30.15-48.24,30.15s-43.89-15.74-58.78-44.34c-16-30.7-24.42-74.1-24.42-125.51,0-107,33.28-176.21,84.79-176.21,21.57,0,38.55,10.7,46.65,29.37Zm165.84,76.28c-30.57-7.23-46.09-18-46.09-57V0L2419,54.72v6.7l1.14-.09c25.62-2.07,43,1.47,53.09,10.79,7.9,7.3,11.75,18.5,11.75,34.26v71.14c-18.31-11.69-40.09-17.38-66.52-17.38-53.6,0-102.59,22.57-137.92,63.56-36.83,42.72-56.3,101.1-56.3,168.81,0,120.93,59.52,202.21,148.12,202.21,51.83,0,93.53-28.4,112.62-76.3v64.3H2651.6v-6.66ZM2810.08,70.57c0-37.76-28.47-66.24-66.24-66.24-37.59,0-67,29.1-67,66.24s29.44,66.24,67,66.24c37.77,0,66.24-28.48,66.24-66.24m43.84,505.33c-30.57-7.23-46.09-18-46.09-57h-.13V161.37L2641,209.22v6.5l1,.09C2678.1,219,2688,231.44,2688,273.58V582.72h166.8v-6.66Zm427,0c-30.57-7.23-46.09-18-46.09-57V161.37L3076.2,207.64v6.52l.94.1c29.48,3.1,38,16.23,38,58.56v226c-9.83,19.45-28.27,31-50.61,31.78-36.23,0-56.18-24.47-56.18-68.9V161.38l-166.66,47.85v6.49l1,.09c36.06,3.2,45.94,15.62,45.94,57.77V464.85a214.44,214.44,0,0,0,3.47,39.82l3,13.05c14.11,50.56,51.08,77,109,77,49.06,0,92.06-30.37,111-77.89v66h166.66v-6.66Zm647.43,6.82v-6.67l-.81-.19c-33.17-7.65-46.09-22.07-46.09-51.43V281.23c0-75.83-42.59-121.09-113.93-121.09-52,0-95.85,30.05-112.73,76.86-13.41-49.6-52-76.86-109.06-76.86-50.12,0-89.4,26.45-106.25,71.13V161.4l-166.66,45.89v6.54l1,.09c35.63,3.16,45.93,15.94,45.93,57v311.8h155.5v-6.66l-.82-.2c-26.46-6.22-35-17.56-35-46.66V250.44c7-16.35,21.11-35.72,49-35.72,34.64,0,52.2,24,52.2,71.28V582.72h155.54v-6.66l-.82-.2c-26.46-6.22-35-17.56-35-46.66v-248a160.48,160.48,0,0,0-2.2-27.68c7.42-17.77,22.34-38.8,51.37-38.8,35.13,0,52.2,23.31,52.2,71.28V582.72Z"/></g></g></svg>