<svg xmlns="http://www.w3.org/2000/svg" viewBox="0 0 341.5 34.9"><defs><style>.cls-1{fill:#e51d2a;}</style></defs><g id="Layer_2" data-name="Layer 2"><g id="Layer_1-2" data-name="Layer 1"><path class="cls-1" d="M0,.1a9.7,9.7,0,0,0,7,7H18l.5.1V34.8h6.8V7.3L26,7H37a9.8,9.8,0,0,0,7-7H0ZM238.6.1h-6.8V34.9H263a9.69,9.69,0,0,0,6-6.8H238.7V0ZM186.3,6.9c3.6-1,6.6-3.8,7.4-6.9L155.6.1V20.7h31.1v7.2H162.3a13.59,13.59,0,0,0-8.7,7h39.9v-21H162.3v-7Zm116.2,28h6.7v-14h24.6v14h6.7v-21h-38ZM85.3,7h26a9.59,9.59,0,0,0,7.1-7H78.3A9.61,9.61,0,0,0,85.3,7Zm0,13.8h26a9.59,9.59,0,0,0,7.1-7H78.3A9.61,9.61,0,0,0,85.3,20.8Zm0,14.1h26a9.59,9.59,0,0,0,7.1-7H78.3A9.61,9.61,0,0,0,85.3,34.9ZM308.5,7h26a9.61,9.61,0,0,0,7-7h-40A9.61,9.61,0,0,0,308.5,7Z"/></g></g></svg>