<svg xmlns="http://www.w3.org/2000/svg" viewBox="0 0 414.42 501.12"><defs><style>.cls-1{fill:#1d1d1b;}</style></defs><g id="Layer_2" data-name="Layer 2"><g id="Layer_1-2" data-name="Layer 1"><path class="cls-1" d="M5,51.84V0H36.72V9.79H14.83V21H32.4v9.8H14.83v21Z"/><path class="cls-1" d="M41.4,51.84V13H50v9.5l-.94-1.22a14.52,14.52,0,0,1,2-3.67,10.47,10.47,0,0,1,3.1-2.74,12.81,12.81,0,0,1,3.06-1.35,16.12,16.12,0,0,1,3.42-.61,18.83,18.83,0,0,1,3.52.09V22.1a10.17,10.17,0,0,0-3.76-.34,10.81,10.81,0,0,0-3.87,1,8.8,8.8,0,0,0-2.91,2.11A8.59,8.59,0,0,0,51.88,28a12.29,12.29,0,0,0-.62,4V51.84Z"/><path class="cls-1" d="M86,52.92a19.85,19.85,0,0,1-10.3-2.63A18.22,18.22,0,0,1,68.85,43,22.34,22.34,0,0,1,66.38,32.4,22,22,0,0,1,68.9,21.69a18.43,18.43,0,0,1,6.95-7.22,21.43,21.43,0,0,1,20.5,0,18.25,18.25,0,0,1,6.93,7.25,22.11,22.11,0,0,1,2.49,10.64,22,22,0,0,1-2.51,10.67,18.25,18.25,0,0,1-6.94,7.24A19.94,19.94,0,0,1,86,52.92Zm0-9.14c3.14,0,5.49-1.07,7-3.19A13.6,13.6,0,0,0,95.4,32.4,13.33,13.33,0,0,0,93,24.12,8.27,8.27,0,0,0,86,21a9,9,0,0,0-5.26,1.44,8.55,8.55,0,0,0-3,4,16.36,16.36,0,0,0-1,5.94,13.33,13.33,0,0,0,2.36,8.3A8.19,8.19,0,0,0,86,43.78Z"/><path class="cls-1" d="M111.82,51.84V13h8.71V25.85h1.22v26Zm26.56,0V33.48c0-.89,0-2-.14-3.4a15.6,15.6,0,0,0-.9-4.16,7.88,7.88,0,0,0-2.47-3.49A7.41,7.41,0,0,0,130,21a10.39,10.39,0,0,0-2.7.4,6.58,6.58,0,0,0-2.7,1.53,8.27,8.27,0,0,0-2.07,3.33,17.23,17.23,0,0,0-.81,5.83l-5.61-2.66A20.25,20.25,0,0,1,118,20.81a15.44,15.44,0,0,1,5.63-6.52,16.93,16.93,0,0,1,9.49-2.48,15.61,15.61,0,0,1,7.45,1.55,12.3,12.3,0,0,1,4.48,3.92,16.3,16.3,0,0,1,2.29,4.95,25.93,25.93,0,0,1,.83,4.7c.09,1.41.14,2.45.14,3.09V51.84Z"/><path class="cls-1" d="M151.56,20.52V13h27.65v7.56Zm27.65,31.32a38.38,38.38,0,0,1-7.91.67,18.89,18.89,0,0,1-6.91-1.37A9.21,9.21,0,0,1,159.77,47a12,12,0,0,1-1.52-5.42c0-1.84-.07-3.92-.07-6.25V2.16H168V34.78q0,2.27.06,4.08a5.61,5.61,0,0,0,.74,2.9A4.91,4.91,0,0,0,172.91,44a31.54,31.54,0,0,0,6.3-.29Z"/><path class="cls-1" d="M185.33,32.9V25.34h21.59V32.9Z"/><path class="cls-1" d="M214.49,51.84V0h33.84V9.14H224.28V20.23H244v9.15H224.28V42.7h24.05v9.14Z"/><path class="cls-1" d="M255.09,51.84V13h8.71V25.85H265v26Zm26.57,0V33.48c0-.89-.05-2-.14-3.4a15.6,15.6,0,0,0-.9-4.16,8,8,0,0,0-2.47-3.49A7.41,7.41,0,0,0,273.31,21a10.39,10.39,0,0,0-2.7.4,6.58,6.58,0,0,0-2.7,1.53,8.27,8.27,0,0,0-2.07,3.33,17.23,17.23,0,0,0-.81,5.83l-5.62-2.66a20.26,20.26,0,0,1,1.88-8.64,15.44,15.44,0,0,1,5.63-6.52,16.93,16.93,0,0,1,9.49-2.48,15.61,15.61,0,0,1,7.45,1.55,12.3,12.3,0,0,1,4.48,3.92,16,16,0,0,1,2.28,4.95,24.3,24.3,0,0,1,.83,4.7c.1,1.41.15,2.45.15,3.09V51.84Z"/><path class="cls-1" d="M314.2,52.92a16.49,16.49,0,0,1-9.39-2.7,18.17,18.17,0,0,1-6.28-7.34,23.74,23.74,0,0,1-2.25-10.48,23.63,23.63,0,0,1,2.28-10.57A18,18,0,0,1,305,14.54a17.61,17.61,0,0,1,9.72-2.66,15.63,15.63,0,0,1,9.32,2.7,16.79,16.79,0,0,1,5.73,7.34A27,27,0,0,1,331.7,32.4a26.68,26.68,0,0,1-2,10.48,15.79,15.79,0,0,1-15.54,10Zm1.59-8.71A8.49,8.49,0,0,0,321,42.73a8.12,8.12,0,0,0,2.82-4.14,19.94,19.94,0,0,0,.87-6.19,19.94,19.94,0,0,0-.87-6.19,8.27,8.27,0,0,0-2.75-4.14,7.78,7.78,0,0,0-5-1.48,8.66,8.66,0,0,0-5.38,1.6,9.37,9.37,0,0,0-3.12,4.29,16.75,16.75,0,0,0-1,5.92,17.37,17.37,0,0,0,1,6,9.21,9.21,0,0,0,3,4.26A8.15,8.15,0,0,0,315.79,44.21Zm8.93,7.63V25.2h-1.23V0h9.87V51.84Z"/><path class="cls-1" d="M336.6,61V53.42h47.52V61Z"/><path class="cls-1" d="M0,147.38v-7.56H47.52v7.56Z"/><path class="cls-1" d="M66.53,139.32a16.5,16.5,0,0,1-9.4-2.7,18.17,18.17,0,0,1-6.28-7.34,25.59,25.59,0,0,1,0-21,18,18,0,0,1,6.43-7.29A17.61,17.61,0,0,1,67,98.28a15.61,15.61,0,0,1,9.32,2.7,16.71,16.71,0,0,1,5.73,7.34,29.14,29.14,0,0,1,0,21,15.78,15.78,0,0,1-15.53,10Zm1.58-8.71a8.49,8.49,0,0,0,5.24-1.48A8.07,8.07,0,0,0,76.17,125a22.46,22.46,0,0,0,0-12.38,8.27,8.27,0,0,0-2.75-4.14,7.78,7.78,0,0,0-5-1.48,8.68,8.68,0,0,0-5.38,1.6A9.44,9.44,0,0,0,60,112.88a16.75,16.75,0,0,0-1,5.92,17.37,17.37,0,0,0,1,6,9.23,9.23,0,0,0,3,4.26A8.1,8.1,0,0,0,68.11,130.61ZM77,138.24V111.6H75.81V86.4h9.87v51.84Z"/><path class="cls-1" d="M112,139.32a21.11,21.11,0,0,1-10.53-2.57,18.56,18.56,0,0,1-7.13-7.1A20.59,20.59,0,0,1,91.8,119.3a23.17,23.17,0,0,1,2.52-11.08,18.33,18.33,0,0,1,7-7.33,19.69,19.69,0,0,1,10.19-2.61,18.21,18.21,0,0,1,10.4,2.88,17,17,0,0,1,6.34,8.1,27.07,27.07,0,0,1,1.43,12.28H120v-3.6q0-5.94-1.89-8.55t-6.17-2.61q-5,0-7.36,3c-1.58,2-2.36,5-2.36,9,0,3.62.78,6.43,2.36,8.41a8.31,8.31,0,0,0,6.93,3,9.24,9.24,0,0,0,4.93-1.26,8.12,8.12,0,0,0,3.13-3.64l9.79,2.81a17.2,17.2,0,0,1-6.93,8.28A19.16,19.16,0,0,1,112,139.32ZM99.14,121.54v-7.28h25.78v7.28Z"/><path class="cls-1" d="M145,138.24,130.9,99.36h9.79l9.21,26.93,9.22-26.93h9.79L154.8,138.24Z"/><path class="cls-1" d="M190.22,139.32a21.11,21.11,0,0,1-10.53-2.57,18.54,18.54,0,0,1-7.12-7.1A20.49,20.49,0,0,1,170,119.3a23.17,23.17,0,0,1,2.52-11.08,18.33,18.33,0,0,1,7-7.33,19.69,19.69,0,0,1,10.19-2.61,18.19,18.19,0,0,1,10.4,2.88,16.91,16.91,0,0,1,6.34,8.1,27.06,27.06,0,0,1,1.44,12.28h-9.69v-3.6q0-5.94-1.89-8.55c-1.26-1.74-3.31-2.61-6.17-2.61q-5,0-7.36,3t-2.36,9c0,3.62.79,6.43,2.36,8.41a8.31,8.31,0,0,0,6.93,3,9.24,9.24,0,0,0,4.93-1.26,8.06,8.06,0,0,0,3.13-3.64l9.79,2.81a17.2,17.2,0,0,1-6.93,8.28A19.14,19.14,0,0,1,190.22,139.32Zm-12.89-17.78v-7.28h25.78v7.28Z"/><path class="cls-1" d="M214.85,138.24V85.32h9.79v52.92Z"/><path class="cls-1" d="M251.13,139.32a19.79,19.79,0,0,1-10.29-2.63,18.31,18.31,0,0,1-6.9-7.25,22.33,22.33,0,0,1-2.46-10.64A22,22,0,0,1,234,108.09a18.36,18.36,0,0,1,6.95-7.22,19.74,19.74,0,0,1,10.18-2.59,20,20,0,0,1,10.32,2.63,18.39,18.39,0,0,1,6.93,7.25,24,24,0,0,1,0,21.31,18.28,18.28,0,0,1-6.95,7.24A19.92,19.92,0,0,1,251.13,139.32Zm0-9.14c3.15,0,5.49-1.07,7-3.19a13.53,13.53,0,0,0,2.32-8.19,13.32,13.32,0,0,0-2.35-8.28,8.29,8.29,0,0,0-7-3.1,8.94,8.94,0,0,0-5.25,1.44,8.49,8.49,0,0,0-3,4,16.15,16.15,0,0,0-1,5.94q0,5.22,2.35,8.3A8.22,8.22,0,0,0,251.13,130.18Z"/><path class="cls-1" d="M276.91,155.52V99.36h8.64V126h1.22v29.52Zm19.15-16.2a15.78,15.78,0,0,1-15.53-10,29.14,29.14,0,0,1,0-21,16.77,16.77,0,0,1,5.72-7.34,15.64,15.64,0,0,1,9.33-2.7,17.61,17.61,0,0,1,9.72,2.66,17.91,17.91,0,0,1,6.42,7.29A23.5,23.5,0,0,1,314,118.8a23.74,23.74,0,0,1-2.25,10.48,18.17,18.17,0,0,1-6.28,7.34A16.5,16.5,0,0,1,296.06,139.32Zm-1.58-8.71a8.1,8.1,0,0,0,5.18-1.59,9.3,9.3,0,0,0,3-4.26,17.37,17.37,0,0,0,1-6,16.53,16.53,0,0,0-1-5.92,9.42,9.42,0,0,0-3.11-4.29,8.68,8.68,0,0,0-5.38-1.6,7.78,7.78,0,0,0-4.95,1.48,8.35,8.35,0,0,0-2.76,4.14,22.71,22.71,0,0,0,0,12.38,8.14,8.14,0,0,0,2.83,4.14A8.47,8.47,0,0,0,294.48,130.61Z"/><path class="cls-1" d="M338.18,139.32a21.11,21.11,0,0,1-10.53-2.57,18.63,18.63,0,0,1-7.13-7.1A20.59,20.59,0,0,1,318,119.3a23.17,23.17,0,0,1,2.52-11.08,18.33,18.33,0,0,1,6.95-7.33,19.69,19.69,0,0,1,10.19-2.61,18.21,18.21,0,0,1,10.4,2.88,16.91,16.91,0,0,1,6.34,8.1,27.2,27.2,0,0,1,1.44,12.28H346.1v-3.6q0-5.94-1.89-8.55T338,106.78q-5,0-7.36,3c-1.58,2-2.36,5-2.36,9,0,3.62.78,6.43,2.36,8.41a8.31,8.31,0,0,0,6.93,3,9.24,9.24,0,0,0,4.93-1.26,8.06,8.06,0,0,0,3.13-3.64l9.79,2.81a17.2,17.2,0,0,1-6.93,8.28A19.14,19.14,0,0,1,338.18,139.32Zm-12.89-17.78v-7.28h25.78v7.28Z"/><path class="cls-1" d="M362.08,138.24V99.36h8.64v9.5l-.93-1.22a14.19,14.19,0,0,1,2-3.67,10.59,10.59,0,0,1,3.1-2.74A13.17,13.17,0,0,1,378,99.88a16.12,16.12,0,0,1,3.42-.61,18.94,18.94,0,0,1,3.53.09v9.14a10.19,10.19,0,0,0-3.76-.34,10.81,10.81,0,0,0-3.87,1,8.74,8.74,0,0,0-2.92,2.11,8.89,8.89,0,0,0-1.8,3.09,12.3,12.3,0,0,0-.61,4v19.87Z"/><path class="cls-1" d="M22.39,225.72a25.67,25.67,0,0,1-8.21-1.3,14.75,14.75,0,0,1-9.52-9.14,18.09,18.09,0,0,1-.16-11.75,14.38,14.38,0,0,1,2.77-5,12.38,12.38,0,0,1,1.3-1.31c.45-.4.91-.77,1.37-1.13A18,18,0,0,1,7,191.65a12.23,12.23,0,0,1-1-5,14.45,14.45,0,0,1,2.57-8.42,13.93,13.93,0,0,1,7-5.26,16.9,16.9,0,0,1,3.71-.86,32.73,32.73,0,0,1,3.64-.22,21.11,21.11,0,0,1,6.8,1.1,13,13,0,0,1,5.51,3.58,13.27,13.27,0,0,1,2.32,3.21A15.65,15.65,0,0,1,39,183.31l-9.72,1.95a5.92,5.92,0,0,0-1.51-2.6,4.72,4.72,0,0,0-2.38-1.35,12.4,12.4,0,0,0-2.66-.3,8.44,8.44,0,0,0-3.6.72,5.36,5.36,0,0,0-2.39,2,5.56,5.56,0,0,0-.78,3.06,4.72,4.72,0,0,0,.65,2.63,16.1,16.1,0,0,0,1.51,1.9c.41.44.92.94,1.53,1.52l1.93,1.8,11.88,11v-8.85H41.9v9.86c0,1.1,0,2.26-.07,3.47a16,16,0,0,1-.36,3L47.81,219l-6.27,6.7-4.75-4.54a18,18,0,0,1-4.37,2.81,18.83,18.83,0,0,1-4.7,1.44c-1,.14-1.93.24-2.77.29S23.26,225.72,22.39,225.72Zm.43-9.29c.56,0,1.08,0,1.59-.07s1-.12,1.51-.22a9.46,9.46,0,0,0,2.11-.63,9.33,9.33,0,0,0,1.71-.95L17.06,202.9a6,6,0,0,0-1.35.79,6.5,6.5,0,0,0-1,1,5.9,5.9,0,0,0-.9,1.83,7.78,7.78,0,0,0-.33,2.34,6.82,6.82,0,0,0,.49,2.68,9.91,9.91,0,0,0,1.17,2.07,6.46,6.46,0,0,0,3.46,2.16A15.15,15.15,0,0,0,22.82,216.43Z"/><path class="cls-1" d="M46.73,233.78v-7.56H94.25v7.56Z"/><path class="cls-1" d="M118.58,225.72a23.06,23.06,0,0,1-11-2.54,18.42,18.42,0,0,1-7.42-7.14,21.37,21.37,0,0,1-2.66-10.84V172.87l9.93-.07v32.33a12,12,0,0,0,.87,4.64,10.75,10.75,0,0,0,2.39,3.6,10.54,10.54,0,0,0,3.57,2.32,12.12,12.12,0,0,0,8.74,0,10.57,10.57,0,0,0,5.91-5.94,12.28,12.28,0,0,0,.84-4.61V172.8h9.94v32.4A21.37,21.37,0,0,1,137,216a18.42,18.42,0,0,1-7.42,7.14A23.07,23.07,0,0,1,118.58,225.72Z"/><path class="cls-1" d="M148.68,224.64V172.8h9.79v51.84Z"/><path class="cls-1" d="M162.43,233.78v-7.56H210v7.56Z"/><path class="cls-1" d="M229,225.72a16.5,16.5,0,0,1-9.4-2.7,18.17,18.17,0,0,1-6.28-7.34A23.74,23.74,0,0,1,211,205.2a23.5,23.5,0,0,1,2.29-10.57,17.91,17.91,0,0,1,6.42-7.29,17.61,17.61,0,0,1,9.72-2.66,15.64,15.64,0,0,1,9.33,2.7,16.77,16.77,0,0,1,5.72,7.34,29.14,29.14,0,0,1,0,21,15.78,15.78,0,0,1-15.53,10Zm1.58-8.71a8.49,8.49,0,0,0,5.24-1.48,8.14,8.14,0,0,0,2.83-4.14,22.71,22.71,0,0,0,0-12.38,8.35,8.35,0,0,0-2.76-4.14,7.78,7.78,0,0,0-4.95-1.48,8.68,8.68,0,0,0-5.38,1.6,9.42,9.42,0,0,0-3.11,4.29,16.53,16.53,0,0,0-1,5.92,17.37,17.37,0,0,0,1,6,9.23,9.23,0,0,0,3,4.26A8.1,8.1,0,0,0,230.54,217Zm8.93,7.63V198h-1.22V172.8h9.86v51.84Z"/><path class="cls-1" d="M274.46,225.72a21.11,21.11,0,0,1-10.53-2.57,18.63,18.63,0,0,1-7.13-7.1,20.59,20.59,0,0,1-2.57-10.35,23.17,23.17,0,0,1,2.52-11.08,18.33,18.33,0,0,1,6.95-7.33,19.69,19.69,0,0,1,10.19-2.61,18.21,18.21,0,0,1,10.4,2.88,16.91,16.91,0,0,1,6.34,8.1,27.2,27.2,0,0,1,1.44,12.28h-9.69v-3.6q0-5.94-1.89-8.55t-6.17-2.61q-5,0-7.36,3c-1.58,2-2.36,5-2.36,9,0,3.62.78,6.43,2.36,8.41a8.31,8.31,0,0,0,6.93,3,9.24,9.24,0,0,0,4.93-1.26,8.06,8.06,0,0,0,3.13-3.64l9.79,2.81a17.2,17.2,0,0,1-6.93,8.28A19.14,19.14,0,0,1,274.46,225.72Zm-12.89-17.78v-7.28h25.78v7.28Z"/><path class="cls-1" d="M313.56,225.72q-7.35,0-11.87-3.33A13.91,13.91,0,0,1,296.2,213l10-1.52a7,7,0,0,0,2.72,4.29,8.81,8.81,0,0,0,5.35,1.55,7,7,0,0,0,4.1-1,3.31,3.31,0,0,0,1.44-2.86,2.82,2.82,0,0,0-.58-1.86,6,6,0,0,0-2.57-1.38q-2-.69-6.21-1.8a35.42,35.42,0,0,1-7.6-2.74,10.16,10.16,0,0,1-4.1-3.62,9.73,9.73,0,0,1-1.26-5.09,11.15,11.15,0,0,1,1.91-6.5,12.26,12.26,0,0,1,5.38-4.25,20.75,20.75,0,0,1,8.19-1.49,21.89,21.89,0,0,1,8.1,1.4,14.2,14.2,0,0,1,5.71,4,12,12,0,0,1,2.68,6.12l-10,1.8a4.86,4.86,0,0,0-1.87-3.42,8.1,8.1,0,0,0-4.39-1.48,7.89,7.89,0,0,0-4.34.72,2.84,2.84,0,0,0-1.64,2.6,2.26,2.26,0,0,0,.7,1.69,8.23,8.23,0,0,0,2.92,1.4c1.47.48,3.72,1.11,6.75,1.87a29.73,29.73,0,0,1,7.11,2.69,10,10,0,0,1,3.9,3.67,10.21,10.21,0,0,1,1.23,5.16,11.33,11.33,0,0,1-4.32,9.4Q321.19,225.72,313.56,225.72Z"/><path class="cls-1" d="M336.67,180.36v-8.64h9.79v8.64Zm0,44.28V185.76h9.79v38.88Z"/><path class="cls-1" d="M371.23,225.72a16.5,16.5,0,0,1-9.4-2.7,18.17,18.17,0,0,1-6.28-7.34,25.59,25.59,0,0,1,0-21.05,18,18,0,0,1,6.43-7.29,17.61,17.61,0,0,1,9.72-2.66,15.59,15.59,0,0,1,9.32,2.7,16.71,16.71,0,0,1,5.73,7.34,29.14,29.14,0,0,1,0,21,15.78,15.78,0,0,1-15.53,10Zm.86,17.28a18.6,18.6,0,0,1-6.3-1.06,18.25,18.25,0,0,1-5.34-2.95,15.93,15.93,0,0,1-3.84-4.41l9.07-4.4a6.21,6.21,0,0,0,2.69,2.63,8.12,8.12,0,0,0,3.79.9,11.56,11.56,0,0,0,4.14-.74,7.13,7.13,0,0,0,3.12-2.19,5.29,5.29,0,0,0,1.09-3.62v-11.3h1.23v-30.1h8.57V227.3c0,1-.05,1.87-.13,2.72a15.91,15.91,0,0,1-.45,2.54,11.74,11.74,0,0,1-3.47,5.87,16.31,16.31,0,0,1-6.21,3.44A27.06,27.06,0,0,1,372.09,243Zm.72-26a8.49,8.49,0,0,0,5.24-1.48,8.14,8.14,0,0,0,2.83-4.14,22.71,22.71,0,0,0,0-12.38,8.35,8.35,0,0,0-2.76-4.14,7.78,7.78,0,0,0-4.95-1.48,8.68,8.68,0,0,0-5.38,1.6,9.44,9.44,0,0,0-3.12,4.29,16.75,16.75,0,0,0-1,5.92,17.37,17.37,0,0,0,1,6,9.23,9.23,0,0,0,3,4.26A8.1,8.1,0,0,0,372.81,217Z"/><path class="cls-1" d="M0,320.18v-7.56H47.52v7.56Z"/><path class="cls-1" d="M50.69,311V272.16H59.4v12.89h1.22v26Zm26.56,0V292.68c0-.89,0-2-.14-3.4a15.6,15.6,0,0,0-.9-4.16,7.94,7.94,0,0,0-2.46-3.49,7.46,7.46,0,0,0-4.85-1.41,10.39,10.39,0,0,0-2.7.4,6.58,6.58,0,0,0-2.7,1.53,8.27,8.27,0,0,0-2.07,3.33,17.23,17.23,0,0,0-.81,5.83L55,288.65A20.25,20.25,0,0,1,56.88,280a15.51,15.51,0,0,1,5.63-6.52A16.93,16.93,0,0,1,72,271a15.58,15.58,0,0,1,7.45,1.55,12.3,12.3,0,0,1,4.48,3.92,16.3,16.3,0,0,1,2.29,4.95,25.93,25.93,0,0,1,.83,4.7c.09,1.41.14,2.45.14,3.09V311Z"/><path class="cls-1" d="M112.1,312.12a21.11,21.11,0,0,1-10.53-2.57,18.63,18.63,0,0,1-7.13-7.1,20.59,20.59,0,0,1-2.57-10.35A23.17,23.17,0,0,1,94.39,281a18.33,18.33,0,0,1,7-7.33,19.69,19.69,0,0,1,10.19-2.61,18.21,18.21,0,0,1,10.4,2.88,16.91,16.91,0,0,1,6.34,8.1,27.2,27.2,0,0,1,1.44,12.28H120v-3.6q0-5.94-1.89-8.55T112,279.58q-5,0-7.36,3c-1.58,2-2.36,5-2.36,9,0,3.62.78,6.43,2.36,8.41a8.31,8.31,0,0,0,6.93,3,9.24,9.24,0,0,0,4.93-1.26,8.06,8.06,0,0,0,3.13-3.64l9.79,2.81a17.2,17.2,0,0,1-6.93,8.28A19.14,19.14,0,0,1,112.1,312.12ZM99.21,294.34v-7.28H125v7.28Z"/><path class="cls-1" d="M136,311V272.16h8.64v9.5l-.94-1.22a14.22,14.22,0,0,1,2-3.67,10.55,10.55,0,0,1,3.09-2.74,13.17,13.17,0,0,1,3.06-1.35,16.35,16.35,0,0,1,3.42-.61,18.94,18.94,0,0,1,3.53.09v9.14a10.17,10.17,0,0,0-3.76-.34,10.81,10.81,0,0,0-3.87,1,8.66,8.66,0,0,0-4.72,5.2,12.3,12.3,0,0,0-.61,4V311Z"/><path class="cls-1" d="M158.83,320.18v-7.56h47.52v7.56Z"/><path class="cls-1" d="M210.31,311V258.12h9.79V311Z"/><path class="cls-1" d="M229.82,266.76v-8.64h9.79v8.64Zm0,44.28V272.16h9.79V311Z"/><path class="cls-1" d="M259.12,311,245,272.16h9.79L264,299.09l9.21-26.93H283L268.91,311Z"/><path class="cls-1" d="M288.43,266.76v-8.64h9.79v8.64Zm0,44.28V272.16h9.79V311Z"/><path class="cls-1" d="M307.14,311V272.16h8.72v12.89h1.22v26Zm26.57,0V292.68c0-.89,0-2-.14-3.4a15.6,15.6,0,0,0-.9-4.16,7.88,7.88,0,0,0-2.47-3.49,7.41,7.41,0,0,0-4.84-1.41,10.39,10.39,0,0,0-2.7.4,6.58,6.58,0,0,0-2.7,1.53,8.27,8.27,0,0,0-2.07,3.33,17.23,17.23,0,0,0-.81,5.83l-5.62-2.66a20.26,20.26,0,0,1,1.88-8.64,15.44,15.44,0,0,1,5.63-6.52,16.93,16.93,0,0,1,9.49-2.48,15.61,15.61,0,0,1,7.45,1.55,12.3,12.3,0,0,1,4.48,3.92,16.3,16.3,0,0,1,2.29,4.95,25,25,0,0,1,.82,4.7c.1,1.41.15,2.45.15,3.09V311Z"/><path class="cls-1" d="M346.17,320.18v-7.56h47.52v7.56Z"/><path class="cls-1" d="M20.81,398.52a16.5,16.5,0,0,1-9.4-2.7,18.17,18.17,0,0,1-6.28-7.34A23.74,23.74,0,0,1,2.88,378a23.5,23.5,0,0,1,2.29-10.57,17.91,17.91,0,0,1,6.42-7.29,17.61,17.61,0,0,1,9.72-2.66,15.64,15.64,0,0,1,9.33,2.7,16.77,16.77,0,0,1,5.72,7.34A26.86,26.86,0,0,1,38.3,378a26.68,26.68,0,0,1-2,10.48,16.6,16.6,0,0,1-5.85,7.34A16.57,16.57,0,0,1,20.81,398.52Zm.86,17.28a18.6,18.6,0,0,1-6.3-1.06A18.25,18.25,0,0,1,10,411.79a16.09,16.09,0,0,1-3.84-4.41l9.07-4.4A6.21,6.21,0,0,0,18,405.61a8.15,8.15,0,0,0,3.79.9,11.56,11.56,0,0,0,4.14-.74A7.13,7.13,0,0,0,29,403.58,5.34,5.34,0,0,0,30.1,400v-11.3h1.22v-30.1h8.57V400.1a26,26,0,0,1-.13,2.72,15.91,15.91,0,0,1-.45,2.54,11.74,11.74,0,0,1-3.47,5.87,16.31,16.31,0,0,1-6.21,3.44A27.06,27.06,0,0,1,21.67,415.8Zm.72-26a8.47,8.47,0,0,0,5.24-1.48,8.14,8.14,0,0,0,2.83-4.14,22.71,22.71,0,0,0,0-12.38,8.35,8.35,0,0,0-2.76-4.14,7.78,7.78,0,0,0-4.95-1.48,8.68,8.68,0,0,0-5.38,1.6,9.42,9.42,0,0,0-3.11,4.29,16.53,16.53,0,0,0-1,5.92,17.37,17.37,0,0,0,1,6,9.23,9.23,0,0,0,3,4.26A8.1,8.1,0,0,0,22.39,389.81Z"/><path class="cls-1" d="M43.13,406.58V399H90.65v7.56Z"/><path class="cls-1" d="M94.61,397.44V345.6h9.79v51.84Z"/><path class="cls-1" d="M128.59,398.52q-7.35,0-11.86-3.33a13.91,13.91,0,0,1-5.49-9.41l10-1.52a7,7,0,0,0,2.71,4.29,8.83,8.83,0,0,0,5.35,1.55,7,7,0,0,0,4.1-1,3.31,3.31,0,0,0,1.44-2.86,2.87,2.87,0,0,0-.57-1.86A6.05,6.05,0,0,0,131.7,383q-2-.69-6.21-1.8a35.31,35.31,0,0,1-7.59-2.74,10.13,10.13,0,0,1-4.11-3.62,9.73,9.73,0,0,1-1.26-5.09,11.15,11.15,0,0,1,1.91-6.5,12.32,12.32,0,0,1,5.38-4.25,20.75,20.75,0,0,1,8.19-1.49,21.89,21.89,0,0,1,8.1,1.4,14.06,14.06,0,0,1,5.71,4A11.91,11.91,0,0,1,144.5,369l-10,1.8a4.83,4.83,0,0,0-1.87-3.42,8.07,8.07,0,0,0-4.39-1.48,7.89,7.89,0,0,0-4.34.72,2.84,2.84,0,0,0-1.64,2.6,2.27,2.27,0,0,0,.71,1.69,8.16,8.16,0,0,0,2.91,1.4c1.48.48,3.73,1.11,6.75,1.87a29.73,29.73,0,0,1,7.11,2.69,10.1,10.1,0,0,1,3.91,3.67,10.31,10.31,0,0,1,1.22,5.16,11.33,11.33,0,0,1-4.32,9.4Q136.22,398.52,128.59,398.52Z"/><path class="cls-1" d="M146.66,366.12v-7.56h27.65v7.56Zm27.65,31.32a38.28,38.28,0,0,1-7.9.67,19.06,19.06,0,0,1-6.91-1.37,9.23,9.23,0,0,1-4.63-4.12,12,12,0,0,1-1.51-5.42q-.08-2.76-.07-6.25V347.76h9.79v32.62c0,1.51,0,2.87,0,4.08a5.71,5.71,0,0,0,.74,2.9,4.91,4.91,0,0,0,4.14,2.23,31.48,31.48,0,0,0,6.3-.29Z"/><path class="cls-1" d="M192,398.52a14.44,14.44,0,0,1-7.08-1.6,11,11,0,0,1-4.39-4.29,12,12,0,0,1-1.49-5.92,13.9,13.9,0,0,1,.83-4.93,10,10,0,0,1,2.68-3.94,14.67,14.67,0,0,1,5-2.86,36.29,36.29,0,0,1,5.15-1.41q3-.61,6.77-1.17l8.32-1.24-3.53,1.94q0-3.45-1.66-5.07T197,366.41a11.12,11.12,0,0,0-4.5,1,6,6,0,0,0-3.28,3.71l-8.85-2.81a15,15,0,0,1,5.54-7.85q4.07-3,11.09-3a24.77,24.77,0,0,1,9.14,1.58,11.4,11.4,0,0,1,6.05,5.48,11.68,11.68,0,0,1,1.37,4.32c.14,1.44.21,3,.21,4.82v23.76H205.2v-8l1.22,1.65a18.4,18.4,0,0,1-6.14,5.67A17.58,17.58,0,0,1,192,398.52Zm2.09-7.7a10.06,10.06,0,0,0,9-5.19,10,10,0,0,0,.88-3.69q.12-2.1.12-3.51l2.88.72q-4.35.72-7,1.21c-1.8.32-3.25.62-4.36.88a25.17,25.17,0,0,0-2.91.86,10.2,10.2,0,0,0-2.33,1.25A4.45,4.45,0,0,0,189,384.8a3.73,3.73,0,0,0-.42,1.77,3.89,3.89,0,0,0,.67,2.28,4.07,4.07,0,0,0,1.89,1.46A7.59,7.59,0,0,0,194,390.82Z"/><path class="cls-1" d="M221.25,397.44V358.56H230v12.89h1.23v26Zm26.57,0V379.08c0-.89,0-2-.14-3.4a15.6,15.6,0,0,0-.9-4.16,8,8,0,0,0-2.47-3.49,7.41,7.41,0,0,0-4.84-1.41,10.39,10.39,0,0,0-2.7.4,6.58,6.58,0,0,0-2.7,1.53,8.27,8.27,0,0,0-2.07,3.33,17.23,17.23,0,0,0-.81,5.83l-5.62-2.66a20.4,20.4,0,0,1,1.87-8.64,15.53,15.53,0,0,1,5.64-6.52,16.92,16.92,0,0,1,9.48-2.48A15.62,15.62,0,0,1,250,359a12.3,12.3,0,0,1,4.48,3.92,16,16,0,0,1,2.28,4.95,24.3,24.3,0,0,1,.83,4.7c.1,1.41.15,2.45.15,3.09v21.82Z"/><path class="cls-1" d="M265.24,397.44V345.6h9.87v25.2h-1.23v26.64Zm19.16,1.08a15.79,15.79,0,0,1-15.54-10,26.68,26.68,0,0,1-2-10.48,27,27,0,0,1,1.94-10.48,16.79,16.79,0,0,1,5.73-7.34,15.63,15.63,0,0,1,9.32-2.7,17.61,17.61,0,0,1,9.72,2.66,18,18,0,0,1,6.43,7.29,25.59,25.59,0,0,1,0,21.05,18.17,18.17,0,0,1-6.28,7.34A16.49,16.49,0,0,1,284.4,398.52Zm-1.59-8.71a8.15,8.15,0,0,0,5.19-1.59,9.28,9.28,0,0,0,3-4.26,17.37,17.37,0,0,0,1-6,16.75,16.75,0,0,0-1-5.92,9.37,9.37,0,0,0-3.12-4.29,8.68,8.68,0,0,0-5.38-1.6,7.78,7.78,0,0,0-4.95,1.48,8.27,8.27,0,0,0-2.75,4.14,22.46,22.46,0,0,0,0,12.38,8.07,8.07,0,0,0,2.82,4.14A8.49,8.49,0,0,0,282.81,389.81Z"/><path class="cls-1" d="M322.91,398.59a15.61,15.61,0,0,1-7.45-1.55,12.3,12.3,0,0,1-4.48-3.92,16.3,16.3,0,0,1-2.29-4.95,25,25,0,0,1-.82-4.7c-.1-1.41-.15-2.45-.15-3.09V358.56h9.94v18.36c0,.89,0,2,.14,3.4a15.6,15.6,0,0,0,.9,4.16,8,8,0,0,0,2.47,3.49,7.41,7.41,0,0,0,4.84,1.41,10.39,10.39,0,0,0,2.7-.4,6.58,6.58,0,0,0,2.7-1.53,8.22,8.22,0,0,0,2.07-3.35,17.26,17.26,0,0,0,.81-5.81l5.62,2.66a20.26,20.26,0,0,1-1.88,8.64,15.44,15.44,0,0,1-5.63,6.52A16.93,16.93,0,0,1,322.91,398.59Zm12.6-1.15V384.55h-1.22v-26h9.86v38.88Z"/><path class="cls-1" d="M353.15,397.44V344.52H363v52.92Z"/><path class="cls-1" d="M366.91,406.58V399h47.51v7.56Z"/><path class="cls-1" d="M0,493v-7.56H47.52V493Z"/><path class="cls-1" d="M62.78,483.84v-42.7H46.44V432H88.92v9.14H72.58v42.7Z"/><path class="cls-1" d="M103.75,485a15.58,15.58,0,0,1-7.45-1.55,12.22,12.22,0,0,1-4.48-3.92,16.3,16.3,0,0,1-2.29-4.95,25.93,25.93,0,0,1-.83-4.7c-.09-1.41-.14-2.45-.14-3.09V445H98.5v18.36c0,.89,0,2,.14,3.4a15.6,15.6,0,0,0,.9,4.16,7.94,7.94,0,0,0,2.46,3.49,7.44,7.44,0,0,0,4.85,1.41,10.39,10.39,0,0,0,2.7-.4,6.58,6.58,0,0,0,2.7-1.53,8.22,8.22,0,0,0,2.07-3.35,17.22,17.22,0,0,0,.81-5.81l5.61,2.66a20.25,20.25,0,0,1-1.87,8.64,15.51,15.51,0,0,1-5.63,6.52A16.93,16.93,0,0,1,103.75,485Zm12.6-1.15V471h-1.22V445H125v38.88Z"/><path class="cls-1" d="M133.27,483.84V445h8.64v9.5l-.94-1.22a14.52,14.52,0,0,1,2-3.67,10.47,10.47,0,0,1,3.1-2.74,12.81,12.81,0,0,1,3.06-1.35,16.12,16.12,0,0,1,3.42-.61,18.83,18.83,0,0,1,3.52.09v9.14a10.17,10.17,0,0,0-3.76-.34,10.81,10.81,0,0,0-3.87,1,8.8,8.8,0,0,0-2.91,2.11,8.59,8.59,0,0,0-1.8,3.09,12.29,12.29,0,0,0-.62,4v19.87Z"/><path class="cls-1" d="M161.06,483.84l.07-51.84h9.94v31.68L184.25,445h12.09l-14,19.44,15,19.44H184.53l-13.46-18.72v18.72Z"/><path class="cls-1" d="M216.43,484.92a21.06,21.06,0,0,1-10.53-2.57,18.56,18.56,0,0,1-7.13-7.1,20.48,20.48,0,0,1-2.57-10.35,23.17,23.17,0,0,1,2.52-11.08,18.31,18.31,0,0,1,6.94-7.33,19.71,19.71,0,0,1,10.19-2.61,18.24,18.24,0,0,1,10.41,2.88,17,17,0,0,1,6.33,8.1A26.92,26.92,0,0,1,234,467.14h-9.68v-3.6q0-5.94-1.89-8.55t-6.18-2.61c-3.33,0-5.79,1-7.36,3s-2.36,5-2.36,9c0,3.62.79,6.43,2.36,8.41a8.31,8.31,0,0,0,6.93,3,9.22,9.22,0,0,0,4.93-1.26,8.08,8.08,0,0,0,3.14-3.64l9.79,2.81a17.31,17.31,0,0,1-6.93,8.28A19.19,19.19,0,0,1,216.43,484.92Zm-12.89-17.78v-7.28h25.78v7.28Z"/><path class="cls-1" d="M244.58,501.12l7.49-20.59.14,6.05L235.29,445h10.15l11.38,29.45h-2.3L265.82,445h9.79l-22,56.16Z"/><path class="cls-1" d="M274.68,483.84v-9.79h9.79v9.79Z"/></g></g></svg>