<svg xmlns="http://www.w3.org/2000/svg" viewBox="0 0 511.5 368"><defs><style>.cls-1{fill:#feef7f;}.cls-2{fill:#ea9a10;}.cls-3{fill:#b8ecff;}.cls-4{fill:#57bfe6;}.cls-5{fill:#fff;}</style></defs><g id="Layer_2" data-name="Layer 2"><g id="Layer_1-2" data-name="Layer 1"><circle class="cls-1" cx="184" cy="184" r="112"/><path class="cls-2" d="M184,296A112,112,0,0,0,258,99.93,128,128,0,0,0,184,216a64,64,0,0,0-63.86,60A111.43,111.43,0,0,0,184,296Z"/><path class="cls-3" d="M456,264c-1.38,0-2.74.07-4.08.18A128,128,0,1,0,200,232a64,64,0,0,0,0,128H456a48,48,0,0,0,0-96Z"/><path class="cls-4" d="M456,264c-1.38,0-2.74.07-4.08.18A128.11,128.11,0,0,0,328,104c-4.05,0-8.05.2-12,.56A128.12,128.12,0,0,1,427.92,264.18c1.34-.11,2.7-.18,4.08-.18a48,48,0,0,1,0,96h24a48,48,0,0,0,0-96Z"/><rect class="cls-5" x="280" y="312.5" width="16" height="15"/><rect class="cls-5" x="312" y="312.5" width="16" height="15"/><rect class="cls-5" x="344" y="312.5" width="16" height="15"/><path d="M184,127.5v-15A71.57,71.57,0,0,0,112.5,184h15A56.57,56.57,0,0,1,184,127.5Z"/><path d="M79.5,184a104.5,104.5,0,0,1,171.68-80l9.65-11.49A119.51,119.51,0,1,0,110.07,277.89l9.29-11.78A104,104,0,0,1,79.5,184Z"/><path d="M461.2,256.75A134.72,134.72,0,0,0,463.5,232c0-74.71-60.79-135.5-135.5-135.5-72.32,0-131.59,57-135.31,128.37a71.84,71.84,0,0,0-64.19,71.38c0,39.42,32.07,71.75,71.5,71.75H456c30.6,0,55.5-25.15,55.5-55.75A55.81,55.81,0,0,0,461.2,256.75ZM456,353H200c-31.15,0-56.5-25.6-56.5-56.75a56.7,56.7,0,0,1,49.24-56.14,135.18,135.18,0,0,0,4,25.82l14.53-3.77A120.51,120.51,0,1,1,448.5,232a119.19,119.19,0,0,1-26.43,75.31l11.71,9.38a135.6,135.6,0,0,0,23.8-45.15A40.75,40.75,0,0,1,456,353Z"/><path d="M240.5,232h15A72.58,72.58,0,0,1,328,159.5v-15A87.6,87.6,0,0,0,240.5,232Z"/><rect y="177" width="48" height="15"/><rect x="176" width="15" height="48"/><rect x="271.7" y="60.5" width="56.57" height="15" transform="translate(39.78 232.04) rotate(-45)"/><rect x="39.73" y="292.51" width="56.57" height="15" transform="translate(-192.22 135.96) rotate(-45)"/><rect x="60.5" y="39.71" width="15" height="56.57" transform="translate(-28.17 68) rotate(-45)"/></g></g></svg>